<svg xmlns="http://www.w3.org/2000/svg" viewBox="0 0 128 128">
<defs><radialGradient id="m" cx="50%" cy="50%" r="70%"><stop offset="0" stop-color="#f5d0fe"/><stop offset=".5" stop-color="#a78bfa"/><stop offset="1" stop-color="#312e81"/></radialGradient></defs>
<rect width="128" height="128" rx="26" fill="#1e1b4b"/>
<path d="M61 54C45 20 15 16 9 55c13 4 28 10 43 25M67 54c16-34 46-38 52 1-13 4-28 10-43 25" fill="url(#m)" stroke="#f5d0fe" stroke-width="5" stroke-linejoin="round"/>
<ellipse cx="64" cy="70" rx="18" ry="32" fill="#ede9fe" stroke="#312e81" stroke-width="5"/>
<circle cx="56" cy="58" r="4" fill="#111827"/><circle cx="72" cy="58" r="4" fill="#111827"/>
<path d="M64 20v21M47 25l13 18M81 25 68 43" stroke="#f5d0fe" stroke-width="5" stroke-linecap="round"/>
<path d="M24 53c12 3 20 8 27 17M104 53c-12 3-20 8-27 17" stroke="#fff" stroke-width="5" opacity=".75"/>
<rect x="54" y="82" width="20" height="16" rx="5" fill="#c4b5fd" stroke="#312e81" stroke-width="3"/>
</svg>
