<svg xmlns="http://www.w3.org/2000/svg" viewBox="0 0 128 128">
<defs><radialGradient id="m" cx="55%" cy="35%" r="70%"><stop offset="0" stop-color="#f5d0fe"/><stop offset=".5" stop-color="#c084fc"/><stop offset="1" stop-color="#3b0764"/></radialGradient></defs>
<rect width="128" height="128" rx="26" fill="#2e1065"/>
<path d="M34 42 50 20l11 21h6l11-21 16 22c15 33 1 70-30 70S20 75 34 42z" fill="url(#m)" stroke="#f5d0fe" stroke-width="5"/>
<path d="M32 83c-17 4-20 18-7 25 15 8 30-3 25-17" fill="none" stroke="#e9d5ff" stroke-width="8" stroke-linecap="round"/>
<path d="M49 61h10M70 61h10" stroke="#111827" stroke-width="5" stroke-linecap="round"/>
<path d="M61 72c5 4 8 4 13 0" stroke="#111827" stroke-width="4" stroke-linecap="round"/>
<path d="M17 34c18 10 73 8 95-5M17 101c22-12 78-13 97 1" stroke="#f0abfc" stroke-width="5" opacity=".75" stroke-linecap="round"/>
<circle cx="91" cy="38" r="7" fill="#f0abfc" opacity=".9"/>
</svg>
