<svg xmlns="http://www.w3.org/2000/svg" viewBox="0 0 128 128">
<defs><radialGradient id="g" cx="50%" cy="35%" r="65%"><stop offset="0" stop-color="#dcfce7"/><stop offset=".55" stop-color="#22c55e"/><stop offset="1" stop-color="#14532d"/></radialGradient></defs>
<rect width="128" height="128" rx="26" fill="#052e16"/>
<ellipse cx="64" cy="72" rx="36" ry="34" fill="url(#g)" stroke="#bbf7d0" stroke-width="5"/>
<path d="M42 39c-13-16-5-28 17-20-2 15-9 23-17 20zM86 39c13-16 5-28-17-20 2 15 9 23 17 20z" fill="#86efac" stroke="#dcfce7" stroke-width="4"/>
<circle cx="52" cy="68" r="5" fill="#052e16"/><circle cx="76" cy="68" r="5" fill="#052e16"/>
<path d="M53 84c9 7 16 7 25 0" fill="none" stroke="#052e16" stroke-width="5" stroke-linecap="round"/>
<circle cx="34" cy="92" r="7" fill="#a855f7" opacity=".9"/><circle cx="95" cy="91" r="6" fill="#a855f7" opacity=".9"/><circle cx="64" cy="103" r="5" fill="#a855f7" opacity=".9"/>
<path d="M26 108c17-10 58-10 76 0" stroke="#22c55e" stroke-width="6" stroke-linecap="round"/>
</svg>
