<svg xmlns="http://www.w3.org/2000/svg" viewBox="0 0 128 128">
<defs><linearGradient id="t" x1="0" x2="1" y1="0" y2="1"><stop offset="0" stop-color="#bbf7d0"/><stop offset=".5" stop-color="#15803d"/><stop offset="1" stop-color="#052e16"/></linearGradient></defs>
<rect width="128" height="128" rx="26" fill="#052e16"/>
<path d="M32 56 19 34l27 8 18-23 18 23 27-8-13 22c13 18 10 46-32 52-42-6-45-34-32-52z" fill="url(#t)" stroke="#dcfce7" stroke-width="5" stroke-linejoin="round"/>
<path d="M44 61h15M69 61h15" stroke="#052e16" stroke-width="7" stroke-linecap="round"/>
<path d="M50 79c10 8 18 8 28 0" stroke="#dcfce7" stroke-width="5" stroke-linecap="round"/>
<path d="M23 88 7 98M105 88l16 10M31 42 20 20M97 42l11 20" stroke="#86efac" stroke-width="8" stroke-linecap="round"/>
<circle cx="64" cy="38" r="8" fill="#a855f7" stroke="#dcfce7" stroke-width="3"/>
</svg>
