<svg xmlns="http://www.w3.org/2000/svg" viewBox="0 0 128 128">
<defs><radialGradient id="v" cx="48%" cy="40%" r="72%"><stop offset="0" stop-color="#c4b5fd"/><stop offset=".55" stop-color="#6d28d9"/><stop offset="1" stop-color="#020617"/></radialGradient></defs>
<rect width="128" height="128" rx="26" fill="#020617"/>
<path d="M14 75c24-42 71-54 100-18-14 37-60 55-100 18z" fill="url(#v)" stroke="#ddd6fe" stroke-width="5"/>
<path d="M35 75c18-16 40-23 66-20" fill="none" stroke="#a78bfa" stroke-width="8" stroke-linecap="round" opacity=".8"/>
<circle cx="79" cy="58" r="7" fill="#020617"/><circle cx="80" cy="58" r="3" fill="#f5d0fe"/>
<path d="M17 76C8 71 5 62 4 50c11 7 22 10 34 9" fill="#4c1d95" stroke="#ddd6fe" stroke-width="4"/>
<path d="M98 77c12 3 20 10 26 23-14-1-27-6-35-15" fill="#4c1d95" stroke="#ddd6fe" stroke-width="4"/>
<circle cx="27" cy="31" r="5" fill="#a78bfa"/><circle cx="105" cy="93" r="4" fill="#a78bfa"/>
</svg>
